<svg id="Layer_1" data-name="Layer 1" xmlns="http://www.w3.org/2000/svg" viewBox="0 0 125 269"><defs><style>.cls-1,.cls-4{fill:#0d3b48;}.cls-1{opacity:0.1;}.cls-2{fill:#f2beb1;}.cls-3{fill:#d7a095;}.cls-5{fill:#002938;}.cls-6{fill:#fff;}.cls-7{fill:#c5f4ff;stroke-width:0.63px;}.cls-7,.cls-9{stroke:#003b58;stroke-miterlimit:10;}.cls-8{fill:#082640;}.cls-9{fill:none;stroke-width:0.76px;}.cls-10{fill:#ffa666;}.cls-11{fill:#5f4645;}.cls-12{fill:#00d3ff;}.cls-13{fill:#f2efef;}</style></defs><path class="cls-1" d="M115.25,261.76c0,2.28-21.28,4.13-47.53,4.13S20.2,264,20.2,261.76s21.28-4.13,47.52-4.13S115.25,259.48,115.25,261.76Z"/><path class="cls-2" d="M105.23,85.49l1.68-2.63s-2.25-9-.58-7.32a20.29,20.29,0,0,1,2.52,3.6s5.91-8.75,7-8.64-2.38,6.61-2.38,6.61,4.36-7.75,5.82-7.41-3.87,8.55-3.87,8.55,6.08-6.9,6.51-6.5c1.1,1-4.61,8.34-4.61,8.34s4.19-4.07,5.27-3.58S110.87,90,110.87,90Z"/><polygon class="cls-3" points="45.47 44.13 44.31 63.15 42.69 72.75 49.74 75.13 57.93 78.05 57.69 63.94 57.99 49.54 45.47 44.13"/><path class="cls-2" d="M50.66,12.23C41,14.06,41,20.67,41,20.67a59.85,59.85,0,0,0-.78,9.91,3.16,3.16,0,0,0-3.89-1.22C33,30.63,35,41,40,40.32a26.56,26.56,0,0,0,1.5,7.19c1.28,3,7.25,7.67,12.67,8.57s12.46-1.85,13.21-8.23c1-8.83.57-28,.57-28S66.7,9.2,50.66,12.23Z"/><path class="cls-4" d="M46.93,17.47c-2.59-.11-6.62-1.16-9.2-1.31,0-.26-.11,1.9-.1,1.92.39,1.14-.05,11.27-.05,11.27,2.6.22,2.45,2.31,2.45,2.31l.17,4.67,2.6-.17.52-9.87a5.16,5.16,0,0,0,2.43-2.43S46.47,19.21,46.93,17.47Z"/><path class="cls-5" d="M47,24a5.61,5.61,0,0,1,2.13-1.63,6.19,6.19,0,0,1,2.7-.55,5.49,5.49,0,0,1,2.69.74,5,5,0,0,1,1.91,1.89,23.51,23.51,0,0,0-2.36-.85,8.83,8.83,0,0,0-2.27-.33A17.35,17.35,0,0,0,47,24Z"/><path class="cls-5" d="M60.33,26.48a4.13,4.13,0,0,1,1.54-1.7,4,4,0,0,1,2.34-.63,3.67,3.67,0,0,1,2.27.92,4.32,4.32,0,0,1,.78.88,5.15,5.15,0,0,1,.48,1,10.37,10.37,0,0,1-.95-.56A9.49,9.49,0,0,0,65.9,26a4.58,4.58,0,0,0-1.75-.45A8.88,8.88,0,0,0,60.33,26.48Z"/><path class="cls-4" d="M57.39,40.75s-7.64-2-9,.41-1.84,5-3.94,3.94-1-20.38-1-20.38L40.34,31S34.26,56.35,49.79,57.7c16.27,1.41,18.86-3.15,17.81-11.82,0,0-1.83.79-2.62-1.57S66,40,57.39,40.75Z"/><path class="cls-6" d="M50.28,43.78l12.42.86S58.69,51.23,50.28,43.78Z"/><path class="cls-4" d="M37.63,18.08s-1.08-8.37,6-7.43a19.23,19.23,0,0,1,15.72-6.5L55,6.32s6-3.53,15.72.54a5.66,5.66,0,0,1-4.88,3.79s4.61-.54,5.69-1.35c0,0-.54,6.5-4.07,7.86S51.23,12,46.35,18.24s-7.86-1.08-7.86-1.08"/><path class="cls-7" d="M46.67,26l10.56,1.48s-.06,8.89-7,7.84S46.67,26,46.67,26Z"/><path class="cls-4" d="M52.06,30.41c-.06,1.32-.7,2.36-1.42,2.32s-1.26-1.13-1.2-2.44.7-2.36,1.43-2.32S52.12,29.1,52.06,30.41Z"/><polygon class="cls-8" points="57.64 27.15 45.42 25.31 45.03 26.69 57.33 28.26 57.64 27.15"/><path class="cls-7" d="M69.94,28.55,59.79,27.7s-1.7,9.64,5.33,9.58S69.94,28.55,69.94,28.55Z"/><polygon class="cls-8" points="59.45 27.27 71.27 28.04 71.47 29.46 59.58 28.47 59.45 27.27"/><path class="cls-4" d="M63.86,31.31c-.06,1.31-.7,2.35-1.42,2.32s-1.26-1.13-1.2-2.45.7-2.35,1.43-2.32S63.93,30,63.86,31.31Z"/><polygon class="cls-3" points="57.39 40.75 59.24 29.84 62.69 39.71 57.39 40.75"/><polygon class="cls-8" points="45.05 26.69 36.5 29.48 36.62 28.23 45.42 25.31 45.05 26.69"/><path class="cls-9" d="M56.92,29.36a2.2,2.2,0,0,1,2.71.19"/><polygon class="cls-10" points="51.36 232.82 55.86 254.21 50.18 257.53 41.9 231.02 51.36 232.82"/><path class="cls-8" d="M45.81,248.37A19.68,19.68,0,0,1,37,254.24c-5.35,1.53-10.17,3.47-9.78,6.52,0,0,7.95,3.69,20.86-.42v1.29l8.47-.35V250.6l-7,.47.52-1Z"/><path class="cls-11" d="M42.41,260.49c-11.56,2.82-14.5-.31-15.17-.53a2,2,0,0,0-.07.8s7.95,3.69,20.86-.42v1.29l8.47-.35v-2.13C53.47,259.33,50.94,258.41,42.41,260.49Z"/><polygon class="cls-10" points="69.36 206.88 84.74 259.66 90.48 256.06 79.77 209.72 69.36 206.88"/><path class="cls-8" d="M89.59,246.6a19.69,19.69,0,0,0,10.52,1.49c5.48-.91,10.67-1.23,11.63,1.69,0,0-5.6,6.75-19,8.58l.56,1.17-7.8,3.32-4.59-9.65,6.56-2.6-.92-.73Z"/><path class="cls-11" d="M97.86,256.08c11.65-2.41,13-6.5,13.48-7a2,2,0,0,1,.4.69s-5.6,6.75-19,8.58l.56,1.17-7.8,3.32-.92-1.93C87.37,259.78,89.27,257.87,97.86,256.08Z"/><path class="cls-8" d="M24.35,121.85S17.1,178.63,41.53,240.19c0,0,6.69,4,12-1,0,0-8.92-52.6-8.59-88.41l4.54.44s13,30.29,14.64,38.65,9.76,48,11.77,51.71c0,0,9.37,1.95,11.71-3.12,0,0-2.4-29.46-4.07-44.34-1.24-11.05-16.39-62.57-16.39-62.57Z"/><path class="cls-12" d="M24.35,125.87s21.75,11,42.83,5.68c0,0,5.85-37.64,9.11-60.47A99.9,99.9,0,0,0,52,64l-2,4.83-.78-5.18S29.78,63.6,22.34,64.8C22.34,64.8,23.34,108.13,24.35,125.87Z"/><path class="cls-12" d="M76.29,71.08S88.34,91.91,91.6,104c0,0-4.77,4.52-11.29,4.52L69.77,90.15Z"/><path class="cls-12" d="M22.39,65S8.64,84.73,4.37,96.46c0,0,4.37,4.9,10.87,5.45l12-17.37Z"/><path class="cls-12" d="M24.2,128.82s4.05,7.57,16.34,13L45,132.09l6.4,10.5s11.06-3.62,15.75-11L48.55,120.38Z"/><path class="cls-12" d="M87.23,97.93s13.28-7.82,18.79-14c0,0,5.23,1.22,6.79,4.43,0,0-11.89,17.38-20.21,21.51,0,0-7.08,5.5-9.5,2.69C74.31,102.42,87.23,97.93,87.23,97.93Z"/><path class="cls-2" d="M29.1,120.37c-3.38-1.15-7.77,4.75-8.71,6.9,1.25,1.64,2.16,2.62,2.65,2.76,3.56,1.09,3.45-3.06,3.45-3.06,7.62,8.46.69-2.34.69-2.34,8,10,1.46-1.36,1.46-1.36,9.55,8.49,1.56-.77,1.56-.77C41.51,126.51,29.1,120.37,29.1,120.37Z"/><polygon class="cls-2" points="21.05 128.24 17.46 122.53 21.78 119.38 24.56 123.55 21.05 128.24"/><path class="cls-12" d="M15.69,99.06s3.43,14.28,8.16,21.08c0,0-1.73,4.83-5.22,5.61,0,0-13.71-15.19-15.8-24.24,0,0,2.56-8.94,4.64-12S15.69,99.06,15.69,99.06Z"/><polygon class="cls-13" points="38.9 63.67 44.89 70.59 49.22 63.69 42.47 59.37 38.9 63.67"/><polygon class="cls-13" points="62.11 66.06 56.34 71.38 51.98 63.99 59.64 61.48 62.11 66.06"/><path class="cls-13" d="M51,72.9a1,1,0,1,1-2.05,0,1,1,0,0,1,2.05,0Z"/><path class="cls-13" d="M50.25,82.27a1,1,0,1,1-1-1A1,1,0,0,1,50.25,82.27Z"/><path class="cls-13" d="M49.82,94a1,1,0,1,1-2,0,1,1,0,0,1,2,0Z"/><circle class="cls-13" cx="48.06" cy="105.11" r="1.02"/><path class="cls-13" d="M48.06,117a1,1,0,1,1-1-1A1,1,0,0,1,48.06,117Z"/><path class="cls-13" d="M46.45,127.65a1,1,0,1,1-1-1A1,1,0,0,1,46.45,127.65Z"/><rect class="cls-13" x="62.36" y="84.19" width="1.82" height="13" transform="translate(-36.88 137.56) rotate(-80.18)"/></svg>